<?xml version="1.0" encoding="UTF-8" standalone="no"?>
<svg width="150px" height="50px" viewBox="0 0 150 50" version="1.1" xmlns="http://www.w3.org/2000/svg" xmlns:xlink="http://www.w3.org/1999/xlink" xmlns:sketch="http://www.bohemiancoding.com/sketch/ns">
    <title>logo</title>
    <description>Created with Sketch (http://www.bohemiancoding.com/sketch)</description>
    <defs>
        <path id="path-1" d="M0.0127429845,-0.0737297297 L149.484553,-0.0737297297 L149.484553,47.987027 L0.0127429845,47.987027"></path>
        <path id="path-3" d="M0.0127429845,-0.0737297297 L149.484553,-0.0737297297 L149.484553,47.987027 L0.0127429845,47.987027 L0.0127429845,-0.0737297297 Z"></path>
    </defs>
    <g id="Page-1" stroke="none" stroke-width="1" fill="none" fill-rule="evenodd" sketch:type="MSPage">
        <g id="new-logo" sketch:type="MSLayerGroup" transform="translate(0.000000, 1.000000)">
            <g id="Group-3">
                <mask id="mask-2" sketch:name="Clip 2" fill="white">
                    <use xlink:href="#path-1"></use>
                </mask>
                <g id="Clip-2"></g>
                <path d="M43.2968385,9.40778378 C43.7751251,9.08216216 44.2958884,8.76994595 44.8448987,8.47978378 L45.303009,8.23762162 L45.303009,6.31978378 C45.303009,2.79437838 42.4851103,-0.0737297297 39.0213548,-0.0737297297 L6.28080468,-0.0737297297 C2.81768626,-0.0737297297 0,2.79437838 0,6.31978378 L0,39.6570811 C0,43.1824865 2.81768626,46.0508108 6.28080468,46.0508108 L39.0213548,46.0508108 C42.4851103,46.0508108 45.303009,43.1824865 45.303009,39.6570811 L45.303009,37.7368649 L44.843412,37.4949189 C44.3037466,37.2112432 43.7834081,36.8992432 43.2970508,36.568 L41.9751786,35.6674595 L41.9751786,39.6570811 C41.9751786,41.3145946 40.6501206,42.6631351 39.0213548,42.6631351 L6.28080468,42.6631351 C4.65246364,42.6631351 3.32761802,41.3145946 3.32761802,39.6570811 L3.32761802,6.31978378 C3.32761802,4.66248649 4.65246364,3.31394595 6.28080468,3.31394595 L39.0213548,3.31394595 C40.6501206,3.31394595 41.9751786,4.66248649 41.9751786,6.31978378 L41.9751786,10.3078919 L43.2968385,9.40778378" id="Fill-1" fill="#FFFFFF" sketch:type="MSShapeGroup" mask="url(#mask-2)"></path>
            </g>
            <path d="M37.35436,11.3314595 L37.9477583,10.6655135 L37.0604218,10.6668108 L30.8586237,10.672 L30.6817086,10.672 L30.5642607,10.8041081 L23.5016739,18.7545946 L16.43845,10.8041081 L16.3201526,10.672 L16.1440871,10.672 L9.94250128,10.6668108 L9.05474002,10.6655135 L9.64771357,11.3314595 L19.8803301,22.8337297 L9.64707642,34.355027 L9.05622671,35.0194595 L16.2806494,35.0194595 L37.35436,11.3314595" id="Fill-4" fill="#FFFFFF" sketch:type="MSShapeGroup"></path>
            <path d="M25.3460086,28.9303784 L30.6473025,34.8871351 L30.764538,35.0194595 L37.946484,35.0194595 L28.9461141,24.8899459 L25.3460086,28.9303784" id="Fill-5" fill="#FFFFFF" sketch:type="MSShapeGroup"></path>
            <path d="M137.3664,15.6579459 C133.271654,15.6579459 129.953381,19.0363243 129.953381,23.2047568 C129.953381,27.3718919 133.271654,30.7502703 137.3664,30.7502703 C141.460721,30.7502703 144.779206,27.3718919 144.779206,23.2047568 C144.779206,19.0363243 141.460721,15.6579459 137.3664,15.6579459 L137.3664,15.6579459 Z M149.484553,23.2047568 C149.484553,29.9872432 144.059015,35.4860541 137.367674,35.4860541 C130.673359,35.4860541 125.248034,29.9872432 125.248034,23.2047568 C125.248034,16.4222703 130.673359,10.9232432 137.367674,10.9232432 C144.059015,10.9232432 149.484553,16.4222703 149.484553,23.2047568 L149.484553,23.2047568 Z" id="Fill-6" fill="#FFFFFF" sketch:type="MSShapeGroup"></path>
            <path d="M109.205466,30.7502703 C105.112207,30.7502703 101.793721,27.3718919 101.793721,23.2047568 C101.793721,19.0363243 105.112207,15.6579459 109.205466,15.6579459 C113.300211,15.6579459 116.618697,19.0363243 116.618697,23.2047568 C116.618697,27.3718919 113.300211,30.7502703 109.205466,30.7502703 L109.205466,30.7502703 Z M116.684748,1.00735135 L116.684748,13.5541622 C114.624632,11.9117838 112.031435,10.9232432 109.20674,10.9232432 C102.514125,10.9232432 97.0885866,16.4222703 97.0885866,23.2047568 C97.0885866,29.9872432 102.514125,35.4860541 109.20674,35.4860541 C112.031435,35.4860541 114.624632,34.4977297 116.684748,32.8551351 L116.684748,35.0988108 L121.323832,35.0988108 L121.323832,1.00735135 L116.684748,1.00735135 L116.684748,1.00735135 Z" id="Fill-7" fill="#FFFFFF" sketch:type="MSShapeGroup"></path>
            <path d="M52.2111933,30.7502703 C48.11666,30.7502703 44.7981744,27.3718919 44.7981744,23.2047568 C44.7981744,19.0363243 48.11666,15.6579459 52.2111933,15.6579459 C56.3044523,15.6579459 59.6242121,19.0363243 59.6242121,23.2047568 C59.6242121,27.3718919 56.3044523,30.7502703 52.2111933,30.7502703 L52.2111933,30.7502703 Z M59.6904756,10.9130811 L59.6904756,13.5541622 C57.6290855,11.9117838 55.0371625,10.9232432 52.2111933,10.9232432 C45.5183654,10.9232432 40.0934645,16.4222703 40.0934645,23.2047568 C40.0934645,29.9872432 45.5183654,35.4860541 52.2111933,35.4860541 C55.0371625,35.4860541 57.6290855,34.4977297 59.6904756,32.8551351 L59.6904756,35.0988108 L64.3295592,35.0988108 L64.3295592,10.9130811 L59.6904756,10.9130811 L59.6904756,10.9130811 Z" id="Fill-8" fill="#FFFFFF" sketch:type="MSShapeGroup"></path>
            <path d="M80.9876133,10.9130811 C74.1885939,10.9130811 68.6570767,16.5193514 68.6570767,23.4105946 L68.6570767,35.0979459 L73.7871899,35.0979459 L73.7871899,23.4105946 C73.7871899,19.3684324 77.0173241,16.08 80.9876133,16.08 C84.9579025,16.08 88.1880367,19.3684324 88.1880367,23.4105946 L88.1880367,35.0979459 L93.3183622,35.0979459 L93.3183622,23.4105946 C93.3183622,16.5193514 87.786845,10.9130811 80.9876133,10.9130811" id="Fill-9" fill="#FFFFFF" sketch:type="MSShapeGroup"></path>
            <path d="M51.9195913,45.2598919 C52.1030903,45.291027 52.3477556,45.3014054 52.6637816,45.3014054 C53.5814889,45.3014054 54.427623,44.9589189 54.427623,43.9418378 C54.427623,42.9974054 53.6222664,42.5926486 52.6535872,42.5926486 L51.9195913,42.5926486 L51.9195913,45.2598919 L51.9195913,45.2598919 Z M51.9195913,41.9176216 L52.7249479,41.9176216 C53.6528496,41.9176216 54.2033465,41.4092973 54.2033465,40.7347027 C54.2033465,39.924973 53.6018776,39.5928649 52.7045592,39.5928649 C52.2967837,39.5928649 52.0623127,39.624 51.9195913,39.6551351 L51.9195913,41.9176216 L51.9195913,41.9176216 Z M51.0326796,39.052973 C51.4200663,38.9597838 52.041924,38.8975135 52.6535872,38.8975135 C53.5407113,38.8975135 54.111597,39.052973 54.5295669,39.4060541 C54.8863705,39.6758919 55.110647,40.091027 55.110647,40.6410811 C55.110647,41.3260541 54.662094,41.9176216 53.9484868,42.1772973 L53.9484868,42.2084324 C54.6009276,42.3641081 55.3657191,42.9141622 55.3657191,43.9522162 C55.3657191,44.5541622 55.1310358,45.0211892 54.7742322,45.3532973 C54.3052904,45.7997838 53.5303046,46.0073514 52.4089219,46.0073514 C51.7972587,46.0073514 51.3283168,45.9656216 51.0326796,45.9243243 L51.0326796,39.052973 L51.0326796,39.052973 Z" id="Fill-10" fill="#FFFFFF" sketch:type="MSShapeGroup"></path>
            <path d="M59.6979091,42.9452973 C59.7081034,42.3744865 59.4634381,41.4715676 58.4541938,41.4715676 C57.5364865,41.4715676 57.1490998,42.3122162 57.0777391,42.9452973 L59.6979091,42.9452973 L59.6979091,42.9452973 Z M57.0675447,43.5993514 C57.0879334,44.8343784 57.8525125,45.3429189 58.7600254,45.3429189 C59.4022718,45.3429189 59.7998529,45.2287568 60.1262857,45.0834595 L60.2893959,45.7372973 C59.9731575,45.8825946 59.4226606,46.0592432 58.6376927,46.0592432 C57.1185166,46.0592432 56.2112161,45.0315676 56.2112161,43.5161081 C56.2112161,42.0008649 57.0879334,40.8177297 58.5255545,40.8177297 C60.1464621,40.8177297 60.5646444,42.2499459 60.5646444,43.1736216 C60.5646444,43.3604324 60.55445,43.4953514 60.5338488,43.5993514 L57.0675447,43.5993514 L57.0675447,43.5993514 Z" id="Fill-11" fill="#FFFFFF" sketch:type="MSShapeGroup"></path>
            <path d="M61.6751955,38.5755676 L62.572514,38.5755676 L62.572514,45.9448649 L61.6751955,45.9448649 L61.6751955,38.5755676 Z" id="Fill-12" fill="#FFFFFF" sketch:type="MSShapeGroup"></path>
            <path d="M67.2109603,42.9452973 C67.2211547,42.3744865 66.9764894,41.4715676 65.967245,41.4715676 C65.0495378,41.4715676 64.6621511,42.3122162 64.5907903,42.9452973 L67.2109603,42.9452973 L67.2109603,42.9452973 Z M64.580596,43.5993514 C64.6009847,44.8343784 65.3655638,45.3429189 66.2730767,45.3429189 C66.9153231,45.3429189 67.3129042,45.2287568 67.639337,45.0834595 L67.8024472,45.7372973 C67.4862088,45.8825946 66.9357119,46.0592432 66.150744,46.0592432 C64.6315679,46.0592432 63.7242674,45.0315676 63.7242674,43.5161081 C63.7242674,42.0008649 64.6009847,40.8177297 66.0386058,40.8177297 C67.6595134,40.8177297 68.0776957,42.2499459 68.0776957,43.1736216 C68.0776957,43.3604324 68.0675013,43.4953514 68.0469001,43.5993514 L64.580596,43.5993514 L64.580596,43.5993514 Z" id="Fill-13" fill="#FFFFFF" sketch:type="MSShapeGroup"></path>
            <path d="M72.3183485,42.9452973 C72.3285429,42.3744865 72.0838776,41.4715676 71.0744209,41.4715676 C70.156926,41.4715676 69.7695392,42.3122162 69.6979661,42.9452973 L72.3183485,42.9452973 L72.3183485,42.9452973 Z M69.6879841,43.5993514 C69.7083729,44.8343784 70.472952,45.3429189 71.3802525,45.3429189 C72.0227113,45.3429189 72.4202924,45.2287568 72.7465128,45.0834595 L72.909623,45.7372973 C72.593597,45.8825946 72.0428877,46.0592432 71.2579198,46.0592432 C69.7389561,46.0592432 68.8314432,45.0315676 68.8314432,43.5161081 C68.8314432,42.0008649 69.7083729,40.8177297 71.1457816,40.8177297 C72.7669016,40.8177297 73.1848715,42.2499459 73.1848715,43.1736216 C73.1848715,43.3604324 73.1746771,43.4953514 73.1542883,43.5993514 L69.6879841,43.5993514 L69.6879841,43.5993514 Z" id="Fill-14" fill="#FFFFFF" sketch:type="MSShapeGroup"></path>
            <path d="M74.3873844,45.9448649 L74.3873844,41.6168649 L73.7043605,41.6168649 L73.7043605,40.9212973 L74.3873844,40.9212973 L74.3873844,40.6828108 C74.3873844,39.9768649 74.550707,39.3331892 74.9582702,38.9284324 C75.2946849,38.5963243 75.7434504,38.4614054 76.1614203,38.4614054 C76.4876407,38.4614054 76.7526948,38.5340541 76.9259993,38.6069189 L76.8036667,39.3126486 C76.6711397,39.2503784 76.4978351,39.1982703 76.232781,39.1982703 C75.4682019,39.1982703 75.2745086,39.8730811 75.2745086,40.6514595 L75.2745086,40.9212973 L76.4672519,40.9212973 L76.4672519,41.6168649 L75.2745086,41.6168649 L75.2745086,45.9448649 L74.3873844,45.9448649" id="Fill-15" fill="#FFFFFF" sketch:type="MSShapeGroup"></path>
            <g id="Group-20">
                <mask id="mask-4" sketch:name="Clip 17" fill="white">
                    <use xlink:href="#path-3"></use>
                </mask>
                <g id="Clip-17"></g>
                <path d="M82.8387442,43.0387027 L82.1557202,41.0252973 C82.002592,40.5684324 81.9006481,40.1532973 81.7987042,39.7485405 L81.7785278,39.7485405 C81.676584,40.1532973 81.5744277,40.5891892 81.4317063,41.0149189 L80.7588767,43.0387027 L82.8387442,43.0387027 L82.8387442,43.0387027 Z M80.5753777,43.7446486 L79.8617706,45.9448649 L78.9442757,45.9448649 L81.2891972,38.9494054 L82.3494135,38.9494054 L84.6943351,45.9448649 L83.7460447,45.9448649 L83.0120487,43.7446486 L80.5753777,43.7446486 L80.5753777,43.7446486 Z" id="Fill-16" fill="#FFFFFF" sketch:type="MSShapeGroup" mask="url(#mask-4)"></path>
                <path d="M86.5291125,43.9001081 C86.5291125,44.035027 86.5390945,44.1597838 86.5696776,44.2739459 C86.7327878,44.907027 87.2733028,45.3429189 87.9155492,45.3429189 C88.8636272,45.3429189 89.4141242,44.5541622 89.4141242,43.4021622 C89.4141242,42.4056216 88.8944228,41.5442162 87.9461323,41.5442162 C87.3344691,41.5442162 86.753389,41.9801081 86.5900664,42.6650811 C86.5594832,42.7792432 86.5291125,42.9141622 86.5291125,43.0283243 L86.5291125,43.9001081 L86.5291125,43.9001081 Z M85.6419884,42.5612973 C85.6419884,41.9176216 85.6213872,41.3989189 85.6012108,40.9212973 L86.396373,40.9212973 L86.447345,41.7827027 L86.4677338,41.7827027 C86.8247497,41.1703784 87.4160242,40.8177297 88.2215932,40.8177297 C89.4245309,40.8177297 90.321637,41.8451892 90.321637,43.3604324 C90.321637,45.1664865 89.2308376,46.0592432 88.068465,46.0592432 C87.4160242,46.0592432 86.8451385,45.7684324 86.5495012,45.2702703 L86.5291125,45.2702703 L86.5291125,48 L85.6419884,48 L85.6419884,42.5612973 L85.6419884,42.5612973 Z" id="Fill-18" fill="#FFFFFF" sketch:type="MSShapeGroup" mask="url(#mask-4)"></path>
                <path d="M92.3292942,43.9001081 C92.3292942,44.035027 92.339701,44.1597838 92.3702842,44.2739459 C92.5333944,44.907027 93.0736969,45.3429189 93.7161557,45.3429189 C94.6644462,45.3429189 95.2147307,44.5541622 95.2147307,43.4021622 C95.2147307,42.4056216 94.6948169,41.5442162 93.7465265,41.5442162 C93.1348633,41.5442162 92.5537832,41.9801081 92.3908853,42.6650811 C92.3600898,42.7792432 92.3292942,42.9141622 92.3292942,43.0283243 L92.3292942,43.9001081 L92.3292942,43.9001081 Z M91.4425949,42.5612973 C91.4425949,41.9176216 91.4222061,41.3989189 91.4018174,40.9212973 L92.1969796,40.9212973 L92.2479515,41.7827027 L92.2683403,41.7827027 C92.6251439,41.1703784 93.2164184,40.8177297 94.021775,40.8177297 C95.2249251,40.8177297 96.1222436,41.8451892 96.1222436,43.3604324 C96.1222436,45.1664865 95.0312317,46.0592432 93.8688592,46.0592432 C93.2164184,46.0592432 92.6455326,45.7684324 92.3498954,45.2702703 L92.3292942,45.2702703 L92.3292942,48 L91.4425949,48 L91.4425949,42.5612973 L91.4425949,42.5612973 Z" id="Fill-19" fill="#FFFFFF" sketch:type="MSShapeGroup" mask="url(#mask-4)"></path>
            </g>
            <path d="M97.2429891,38.5755676 L98.1403076,38.5755676 L98.1403076,45.9448649 L97.2429891,45.9448649 L97.2429891,38.5755676 Z" id="Fill-21" fill="#FFFFFF" sketch:type="MSShapeGroup"></path>
            <path d="M102.778966,42.9452973 C102.789161,42.3744865 102.544495,41.4715676 101.535039,41.4715676 C100.617544,41.4715676 100.230157,42.3122162 100.158796,42.9452973 L102.778966,42.9452973 L102.778966,42.9452973 Z M100.148602,43.5993514 C100.168991,44.8343784 100.93357,45.3429189 101.841083,45.3429189 C102.483329,45.3429189 102.88091,45.2287568 103.207131,45.0834595 L103.370241,45.7372973 C103.054427,45.8825946 102.503718,46.0592432 101.718538,46.0592432 C100.199574,46.0592432 99.2922734,45.0315676 99.2922734,43.5161081 C99.2922734,42.0008649 100.168991,40.8177297 101.606399,40.8177297 C103.227519,40.8177297 103.645702,42.2499459 103.645702,43.1736216 C103.645702,43.3604324 103.635295,43.4953514 103.614906,43.5993514 L100.148602,43.5993514 L100.148602,43.5993514 Z" id="Fill-22" fill="#FFFFFF" sketch:type="MSShapeGroup"></path>
            <path d="M110.251028,38.7522162 L109.007312,40.2363243 L108.37526,40.2363243 L109.272579,38.7522162 L110.251028,38.7522162 L110.251028,38.7522162 Z M110.04714,42.9452973 C110.057547,42.3744865 109.812881,41.4715676 108.803425,41.4715676 C107.88593,41.4715676 107.498331,42.3122162 107.42697,42.9452973 L110.04714,42.9452973 L110.04714,42.9452973 Z M107.416988,43.5993514 C107.437164,44.8343784 108.201956,45.3429189 109.109256,45.3429189 C109.751715,45.3429189 110.149296,45.2287568 110.475517,45.0834595 L110.638414,45.7372973 C110.322601,45.8825946 109.771891,46.0592432 108.986924,46.0592432 C107.46796,46.0592432 106.560447,45.0315676 106.560447,43.5161081 C106.560447,42.0008649 107.437164,40.8177297 108.874785,40.8177297 C110.495905,40.8177297 110.913875,42.2499459 110.913875,43.1736216 C110.913875,43.3604324 110.903681,43.4953514 110.883292,43.5993514 L107.416988,43.5993514 L107.416988,43.5993514 Z" id="Fill-23" fill="#FFFFFF" sketch:type="MSShapeGroup"></path>
            <path d="M112.024851,42.2810811 C112.024851,41.7517838 112.014657,41.3366486 111.984074,40.9212973 L112.779448,40.9212973 L112.83042,41.7517838 L112.850596,41.7517838 C113.095474,41.2847568 113.66636,40.8177297 114.481911,40.8177297 C115.165147,40.8177297 116.225364,41.2326486 116.225364,42.9556757 L116.225364,45.9448649 L115.328257,45.9448649 L115.328257,43.0490811 C115.328257,42.2395676 115.03262,41.564973 114.186486,41.564973 C113.605194,41.564973 113.146446,41.9902703 112.983336,42.499027 C112.942346,42.6131892 112.921957,42.7688649 112.921957,42.9247568 L112.921957,45.9448649 L112.024851,45.9448649 L112.024851,42.2810811" id="Fill-24" fill="#FFFFFF" sketch:type="MSShapeGroup"></path>
            <path d="M119.843522,42.2810811 C119.843522,41.7517838 119.823345,41.3366486 119.802956,40.9212973 L120.587924,40.9212973 L120.628702,41.7414054 L120.659285,41.7414054 C120.934533,41.264 121.393281,40.8177297 122.219239,40.8177297 C122.881874,40.8177297 123.391593,41.2326486 123.605675,41.8244324 L123.626064,41.8244324 C123.779192,41.5338378 123.98308,41.3260541 124.186756,41.1703784 C124.482393,40.9422703 124.798419,40.8177297 125.267573,40.8177297 C125.930208,40.8177297 126.898887,41.2534054 126.898887,42.9974054 L126.898887,45.9448649 L126.021958,45.9448649 L126.021958,43.1113514 C126.021958,42.1357838 125.665154,41.564973 124.951547,41.564973 C124.431633,41.564973 124.044246,41.948973 123.880924,42.3848649 C123.840359,42.5197838 123.809563,42.6754595 123.809563,42.8415135 L123.809563,45.9448649 L122.932846,45.9448649 L122.932846,42.9351351 C122.932846,42.1357838 122.586024,41.564973 121.903213,41.564973 C121.352716,41.564973 120.934533,42.0216216 120.791812,42.4782703 C120.74084,42.6028108 120.720451,42.7688649 120.720451,42.9247568 L120.720451,45.9448649 L119.843522,45.9448649 L119.843522,42.2810811" id="Fill-25" fill="#FFFFFF" sketch:type="MSShapeGroup"></path>
            <path d="M131.475955,42.9452973 C131.486362,42.3744865 131.241484,41.4715676 130.232027,41.4715676 C129.314532,41.4715676 128.927146,42.3122162 128.855785,42.9452973 L131.475955,42.9452973 L131.475955,42.9452973 Z M128.845591,43.5993514 C128.865979,44.8343784 129.630558,45.3429189 130.538071,45.3429189 C131.180318,45.3429189 131.577899,45.2287568 131.904119,45.0834595 L132.06723,45.7372973 C131.751416,45.8825946 131.200707,46.0592432 130.415739,46.0592432 C128.896563,46.0592432 127.989262,45.0315676 127.989262,43.5161081 C127.989262,42.0008649 128.865979,40.8177297 130.303388,40.8177297 C131.924508,40.8177297 132.34269,42.2499459 132.34269,43.1736216 C132.34269,43.3604324 132.332284,43.4953514 132.311895,43.5993514 L128.845591,43.5993514 L128.845591,43.5993514 Z" id="Fill-26" fill="#FFFFFF" sketch:type="MSShapeGroup"></path>
            <path d="M136.583131,42.9452973 C136.593325,42.3744865 136.34866,41.4715676 135.339203,41.4715676 C134.421708,41.4715676 134.034322,42.3122162 133.962961,42.9452973 L136.583131,42.9452973 L136.583131,42.9452973 Z M133.952766,43.5993514 C133.973155,44.8343784 134.737734,45.3429189 135.645247,45.3429189 C136.287494,45.3429189 136.685075,45.2287568 137.011295,45.0834595 L137.174405,45.7372973 C136.858592,45.8825946 136.307882,46.0592432 135.522702,46.0592432 C134.003738,46.0592432 133.096438,45.0315676 133.096438,43.5161081 C133.096438,42.0008649 133.973155,40.8177297 135.410564,40.8177297 C137.031684,40.8177297 137.449866,42.2499459 137.449866,43.1736216 C137.449866,43.3604324 137.439459,43.4953514 137.419071,43.5993514 L133.952766,43.5993514 L133.952766,43.5993514 Z" id="Fill-27" fill="#FFFFFF" sketch:type="MSShapeGroup"></path>
            <path d="M138.56063,42.4886486 C138.56063,41.8970811 138.550435,41.3883243 138.520064,40.9212973 L139.305032,40.9212973 L139.345598,41.9176216 L139.376393,41.9176216 C139.60067,41.243027 140.151167,40.8177297 140.752635,40.8177297 C140.844385,40.8177297 140.915958,40.8278919 140.997513,40.8382703 L140.997513,41.6998919 C140.905551,41.6791351 140.814014,41.6791351 140.691469,41.6791351 C140.059417,41.6791351 139.610864,42.1565405 139.488531,42.8415135 C139.468143,42.9660541 139.457948,43.1219459 139.457948,43.2672432 L139.457948,45.9448649 L138.56063,45.9448649 L138.56063,42.4886486" id="Fill-28" fill="#FFFFFF" sketch:type="MSShapeGroup"></path>
            <path d="M141.97575,43.9418378 L141.832816,38.9494054 L142.811689,38.9494054 L142.668968,43.9418378 L141.97575,43.9418378 L141.97575,43.9418378 Z M141.72089,45.4155676 C141.72089,45.0419459 141.97575,44.7721081 142.332553,44.7721081 C142.689569,44.7721081 142.923828,45.0419459 142.923828,45.4155676 C142.923828,45.779027 142.689569,46.0592432 142.312164,46.0592432 C141.965343,46.0592432 141.72089,45.779027 141.72089,45.4155676 L141.72089,45.4155676 Z" id="Fill-29" fill="#FFFFFF" sketch:type="MSShapeGroup"></path>
        </g>
    </g>
</svg>